<svg width="104" height="73" viewBox="0 0 104 73" fill="none" xmlns="http://www.w3.org/2000/svg">
<g clip-path="url(#clip0_15_71)">
<mask id="mask0_15_71" style="mask-type:alpha" maskUnits="userSpaceOnUse" x="0" y="0" width="104" height="73">
<path d="M94.0952 0H9.90476C4.43451 0 0 4.35776 0 9.73333V63.2667C0 68.6422 4.43451 73 9.90476 73H94.0952C99.5655 73 104 68.6422 104 63.2667V9.73333C104 4.35776 99.5655 0 94.0952 0Z" fill="white"/>
</mask>
<g mask="url(#mask0_15_71)">
<path d="M94.0952 0H9.90476C4.43451 0 0 4.35776 0 9.73333V63.2667C0 68.6422 4.43451 73 9.90476 73H94.0952C99.5655 73 104 68.6422 104 63.2667V9.73333C104 4.35776 99.5655 0 94.0952 0Z" fill="white"/>
<path fill-rule="evenodd" clip-rule="evenodd" d="M0 48.6667H104V73H0V48.6667Z" fill="black"/>
<path fill-rule="evenodd" clip-rule="evenodd" d="M0 0H104V24.3333H0V0Z" fill="#007E35"/>
<path fill-rule="evenodd" clip-rule="evenodd" d="M0 0V73H29.7143V0H0Z" fill="#FF0400"/>
<path d="M94.0952 2.43333H9.90477C5.80208 2.43333 2.4762 5.70166 2.4762 9.73333V63.2667C2.4762 67.2983 5.80208 70.5667 9.90477 70.5667H94.0952C98.1979 70.5667 101.524 67.2983 101.524 63.2667V9.73333C101.524 5.70166 98.1979 2.43333 94.0952 2.43333Z" stroke="black" stroke-opacity="0.1"/>
</g>
</g>
<defs>
<clipPath id="clip0_15_71">
<rect width="104" height="73" fill="white"/>
</clipPath>
</defs>
</svg>
