<svg width="73" height="25" viewBox="0 0 73 25" fill="none" xmlns="http://www.w3.org/2000/svg">
<path d="M11.704 0.895998C13.112 0.895998 14.264 1.10933 15.16 1.536C16.0773 1.94133 16.888 2.42133 17.592 2.976C18.0187 3.296 18.3387 3.33867 18.552 3.104C18.7867 2.848 18.9467 2.26133 19.032 1.344H19.768C19.7253 2.176 19.6933 3.18933 19.672 4.384C19.6507 5.55733 19.64 7.12533 19.64 9.088H18.904C18.7973 8.10667 18.6587 7.27467 18.488 6.592C18.3173 5.888 18.0827 5.26933 17.784 4.736C17.4853 4.20267 17.0587 3.72267 16.504 3.296C15.9707 2.76267 15.352 2.368 14.648 2.112C13.944 1.856 13.208 1.728 12.44 1.728C11.288 1.728 10.3067 2.03733 9.496 2.656C8.68533 3.25333 8.024 4.07467 7.512 5.12C7.02133 6.16533 6.65867 7.34933 6.424 8.672C6.18933 9.97333 6.072 11.328 6.072 12.736C6.072 14.1653 6.18933 15.5413 6.424 16.864C6.68 18.1653 7.064 19.328 7.576 20.352C8.10933 21.376 8.792 22.1867 9.624 22.784C10.456 23.3813 11.4373 23.68 12.568 23.68C13.272 23.68 13.976 23.552 14.68 23.296C15.4053 23.0187 16.024 22.624 16.536 22.112C17.368 21.472 17.9333 20.6827 18.232 19.744C18.5307 18.784 18.7547 17.5147 18.904 15.936H19.64C19.64 17.9627 19.6507 19.6053 19.672 20.864C19.6933 22.1013 19.7253 23.1467 19.768 24H19.032C18.9467 23.0827 18.7973 22.5067 18.584 22.272C18.392 22.0373 18.0613 22.0693 17.592 22.368C16.8027 22.9227 15.96 23.4133 15.064 23.84C14.1893 24.2453 13.0587 24.448 11.672 24.448C9.41067 24.448 7.42667 23.9893 5.72 23.072C4.03467 22.1547 2.72267 20.832 1.784 19.104C0.845333 17.376 0.376 15.296 0.376 12.864C0.376 10.4747 0.856 8.384 1.816 6.592C2.79733 4.8 4.13067 3.40267 5.816 2.4C7.52267 1.39733 9.48533 0.895998 11.704 0.895998ZM34.2665 0.895998C35.6745 0.895998 36.8265 1.10933 37.7225 1.536C38.6398 1.94133 39.4505 2.42133 40.1545 2.976C40.5812 3.296 40.9012 3.33867 41.1145 3.104C41.3492 2.848 41.5092 2.26133 41.5945 1.344H42.3305C42.2878 2.176 42.2558 3.18933 42.2345 4.384C42.2132 5.55733 42.2025 7.12533 42.2025 9.088H41.4665C41.3598 8.10667 41.2212 7.27467 41.0505 6.592C40.8798 5.888 40.6452 5.26933 40.3465 4.736C40.0478 4.20267 39.6212 3.72267 39.0665 3.296C38.5332 2.76267 37.9145 2.368 37.2105 2.112C36.5065 1.856 35.7705 1.728 35.0025 1.728C33.8505 1.728 32.8692 2.03733 32.0585 2.656C31.2478 3.25333 30.5865 4.07467 30.0745 5.12C29.5838 6.16533 29.2212 7.34933 28.9865 8.672C28.7518 9.97333 28.6345 11.328 28.6345 12.736C28.6345 14.1653 28.7518 15.5413 28.9865 16.864C29.2425 18.1653 29.6265 19.328 30.1385 20.352C30.6718 21.376 31.3545 22.1867 32.1865 22.784C33.0185 23.3813 33.9998 23.68 35.1305 23.68C35.8345 23.68 36.5385 23.552 37.2425 23.296C37.9678 23.0187 38.5865 22.624 39.0985 22.112C39.9305 21.472 40.4958 20.6827 40.7945 19.744C41.0932 18.784 41.3172 17.5147 41.4665 15.936H42.2025C42.2025 17.9627 42.2132 19.6053 42.2345 20.864C42.2558 22.1013 42.2878 23.1467 42.3305 24H41.5945C41.5092 23.0827 41.3598 22.5067 41.1465 22.272C40.9545 22.0373 40.6238 22.0693 40.1545 22.368C39.3652 22.9227 38.5225 23.4133 37.6265 23.84C36.7518 24.2453 35.6212 24.448 34.2345 24.448C31.9732 24.448 29.9892 23.9893 28.2825 23.072C26.5972 22.1547 25.2852 20.832 24.3465 19.104C23.4078 17.376 22.9385 15.296 22.9385 12.864C22.9385 10.4747 23.4185 8.384 24.3785 6.592C25.3598 4.8 26.6932 3.40267 28.3785 2.4C30.0852 1.39733 32.0478 0.895998 34.2665 0.895998ZM45.213 1.344C45.7677 1.36533 46.493 1.38667 47.389 1.408C48.285 1.42933 49.181 1.44 50.077 1.44C51.101 1.44 52.093 1.42933 53.053 1.408C54.013 1.38667 54.6957 1.376 55.101 1.376C57.7463 1.376 59.7197 1.84533 61.021 2.784C62.3437 3.72267 63.005 4.928 63.005 6.4C63.005 7.14667 62.781 7.904 62.333 8.672C61.885 9.44 61.1917 10.1227 60.253 10.72C59.3143 11.3173 58.0983 11.7547 56.605 12.032V12.096C58.6103 12.2453 60.1997 12.608 61.373 13.184C62.5463 13.76 63.389 14.4533 63.901 15.264C64.413 16.0747 64.669 16.9173 64.669 17.792C64.669 19.136 64.317 20.2667 63.613 21.184C62.909 22.1013 61.8957 22.8053 60.573 23.296C59.2503 23.7653 57.6717 24 55.837 24C55.325 24 54.589 23.9893 53.629 23.968C52.669 23.9253 51.5063 23.904 50.141 23.904C49.2023 23.904 48.285 23.9147 47.389 23.936C46.493 23.936 45.7677 23.9573 45.213 24V23.36C45.8957 23.3173 46.4077 23.232 46.749 23.104C47.0903 22.976 47.3143 22.72 47.421 22.336C47.549 21.952 47.613 21.376 47.613 20.608V4.736C47.613 3.94666 47.549 3.37067 47.421 3.008C47.3143 2.624 47.0797 2.368 46.717 2.24C46.3757 2.09067 45.8743 2.00533 45.213 1.984V1.344ZM54.685 1.984C53.853 1.984 53.309 2.16533 53.053 2.528C52.8183 2.89067 52.701 3.62667 52.701 4.736V20.608C52.701 21.3547 52.7543 21.92 52.861 22.304C52.989 22.688 53.2023 22.944 53.501 23.072C53.821 23.2 54.2903 23.264 54.909 23.264C56.445 23.264 57.565 22.784 58.269 21.824C58.9943 20.8427 59.357 19.456 59.357 17.664C59.357 16.0213 58.941 14.752 58.109 13.856C57.2983 12.96 55.9437 12.512 54.045 12.512H51.325C51.325 12.512 51.325 12.4267 51.325 12.256C51.325 12.064 51.325 11.968 51.325 11.968H54.077C55.0797 11.968 55.8477 11.7333 56.381 11.264C56.9143 10.7733 57.2877 10.1333 57.501 9.344C57.7143 8.53333 57.821 7.66933 57.821 6.752C57.821 5.17333 57.5757 3.98933 57.085 3.2C56.5943 2.38933 55.7943 1.984 54.685 1.984ZM69.945 19.52C70.777 19.52 71.4383 19.744 71.929 20.192C72.4197 20.6187 72.665 21.216 72.665 21.984C72.665 22.752 72.4197 23.36 71.929 23.808C71.4383 24.2347 70.777 24.448 69.945 24.448C69.113 24.448 68.4517 24.2347 67.961 23.808C67.4703 23.36 67.225 22.752 67.225 21.984C67.225 21.216 67.4703 20.6187 67.961 20.192C68.4517 19.744 69.113 19.52 69.945 19.52Z" fill="white"/>
</svg>
