<svg width="135" height="95" viewBox="0 0 135 95" fill="none" xmlns="http://www.w3.org/2000/svg">
<g clip-path="url(#clip0_15_246)">
<mask id="mask0_15_246" style="mask-type:alpha" maskUnits="userSpaceOnUse" x="0" y="0" width="135" height="95">
<path d="M122.143 0H12.8571C5.75634 0 0 5.67106 0 12.6667V82.3333C0 89.3289 5.75634 95 12.8571 95H122.143C129.244 95 135 89.3289 135 82.3333V12.6667C135 5.67106 129.244 0 122.143 0Z" fill="white"/>
</mask>
<g mask="url(#mask0_15_246)">
<path d="M122.143 0H12.8571C5.75634 0 0 5.67106 0 12.6667V82.3333C0 89.3289 5.75634 95 12.8571 95H122.143C129.244 95 135 89.3289 135 82.3333V12.6667C135 5.67106 129.244 0 122.143 0Z" fill="#E02600"/>
<path fill-rule="evenodd" clip-rule="evenodd" d="M35.3443 45.79L25.8943 50.6857L27.6943 40.318L20.0571 32.9713L30.6193 31.4703L35.3443 22.0337L40.0628 31.4703L50.625 32.9713L42.975 40.318L44.7878 50.6793L35.3443 45.79ZM57.8571 19H64.2857V25.3333H57.8571V19ZM64.2857 31.6667H70.7143V38H64.2857V31.6667ZM64.2857 44.3333H70.7143V50.6667H64.2857V44.3333ZM57.8571 57H64.2857V63.3333H57.8571V57Z" fill="#FFE000"/>
<path d="M122.143 3.16666H12.8572C7.53161 3.16666 3.21436 7.41995 3.21436 12.6667V82.3333C3.21436 87.58 7.53161 91.8333 12.8572 91.8333H122.143C127.469 91.8333 131.786 87.58 131.786 82.3333V12.6667C131.786 7.41995 127.469 3.16666 122.143 3.16666Z" stroke="black" stroke-opacity="0.1"/>
</g>
</g>
<defs>
<clipPath id="clip0_15_246">
<rect width="135" height="95" fill="white"/>
</clipPath>
</defs>
</svg>
