<svg width="102" height="73" viewBox="0 0 102 73" fill="none" xmlns="http://www.w3.org/2000/svg">
<g clip-path="url(#clip0_15_50)">
<mask id="mask0_15_50" style="mask-type:alpha" maskUnits="userSpaceOnUse" x="0" y="0" width="102" height="73">
<path d="M92.2857 0H9.71429C4.34923 0 0 4.35776 0 9.73333V63.2667C0 68.6422 4.34923 73 9.71429 73H92.2857C97.6508 73 102 68.6422 102 63.2667V9.73333C102 4.35776 97.6508 0 92.2857 0Z" fill="white"/>
</mask>
<g mask="url(#mask0_15_50)">
<path d="M92.2857 0H9.71429C4.34923 0 0 4.35776 0 9.73333V63.2667C0 68.6422 4.34923 73 9.71429 73H92.2857C97.6508 73 102 68.6422 102 63.2667V9.73333C102 4.35776 97.6508 0 92.2857 0Z" fill="white"/>
<path fill-rule="evenodd" clip-rule="evenodd" d="M0 48.6667H102V73H0V48.6667Z" fill="black"/>
<path fill-rule="evenodd" clip-rule="evenodd" d="M0 0H102V24.3333H0V0Z" fill="#D0091E"/>
<path fill-rule="evenodd" clip-rule="evenodd" d="M51 34.0667L43.7143 29.2L38.8572 34.0667L43.7143 43.8L48.5715 38.9333H53.4286L58.2857 43.8L63.1429 34.0667L58.2857 29.2L51 34.0667Z" fill="#CEAB26"/>
<path d="M92.2857 2.43333H9.7143C5.69051 2.43333 2.42859 5.70166 2.42859 9.73333V63.2667C2.42859 67.2983 5.69051 70.5667 9.7143 70.5667H92.2857C96.3095 70.5667 99.5714 67.2983 99.5714 63.2667V9.73333C99.5714 5.70166 96.3095 2.43333 92.2857 2.43333Z" stroke="black" stroke-opacity="0.1"/>
</g>
</g>
<defs>
<clipPath id="clip0_15_50">
<rect width="102" height="73" fill="white"/>
</clipPath>
</defs>
</svg>
