<svg width="373" height="120" viewBox="0 0 373 120" fill="none" xmlns="http://www.w3.org/2000/svg">
<path fill-rule="evenodd" clip-rule="evenodd" d="M35.3784 9.24363H49.2736L49.9683 9.98865L50.4894 10.7337C52.7068 15.2008 52.6084 15.6075 52.921 20.978C52.9673 28.9066 48.7814 37.5089 53.4421 44.8197C57.1504 49.2714 62.6505 51.1247 67.3372 54.1328L68.9004 55.6228L70.2899 57.1129L71.6795 58.9756L72.7216 61.0244L73.7637 63.4459L74.2848 66.4259L74.8059 69.7787L74.9795 73.504V110.756H60.9107V69.7787L60.3897 66.4259L59.6949 63.6321L58.6528 61.2106L57.6106 58.9756L56.2211 57.2991L54.8316 55.8091C50.8831 51.6585 45.189 50.6993 40.5891 46.1235C31.4096 35.5718 44.9747 20.9967 35.3784 9.24363Z" fill="#0063BE"/>
<path fill-rule="evenodd" clip-rule="evenodd" d="M9.32501 9.24363H23.0465L23.7412 9.98865L24.2623 10.7337C25.701 13.8939 26.911 17.3832 26.5202 20.978C26.6505 28.3136 23.1391 36.056 26.3465 43.1432C28.59 48.6876 36.4263 50.8515 40.9364 54.1328L44.0628 57.1129L45.2787 58.9756L46.3208 61.0244L47.3629 63.4459L47.884 66.4259L48.4051 69.7787L48.5788 73.504V110.756H34.6836V73.504L34.5099 69.7787L33.9889 66.4259L33.4678 63.6321C31.2967 58.2119 31.0506 58.2057 27.0413 54.319C22.5688 51.0005 16.8573 49.4949 13.3199 44.8197C9.14554 38.8811 12.0983 29.9808 12.6251 23.2133V17.998L12.104 15.5765L11.7567 13.5277L11.0619 12.0374L10.3671 10.7337L9.84608 9.98865L9.32501 9.42989V9.24363Z" fill="#0063BE"/>
<path fill-rule="evenodd" clip-rule="evenodd" d="M61.4318 9.24363H75.3269L75.5006 9.42989L75.848 9.98865L76.369 10.7337L77.0638 12.0374L77.7586 13.5277L78.4533 15.5765L78.8007 17.998C79.8689 26.3891 74.8956 35.0284 78.4533 43.1432C81.0586 48.492 88.3767 50.9198 93.2169 54.1328L94.6064 55.6228L96.1696 57.1129L97.5591 58.9756L98.6012 61.0244L99.6434 63.4459L100.164 66.4259L100.859 69.7787V110.756H86.7904V69.7787L86.2693 66.4259L85.5746 63.6321C83.5482 57.4482 83.1661 58.5534 79.3217 54.319C74.7711 51.1278 69.0538 49.6004 65.6003 44.8197C61.1365 38.8376 64.2166 30.2353 64.7319 23.2133L64.9055 20.978L64.7319 17.998L64.3845 15.5765L63.8634 13.5277L63.1687 12.0374L62.4739 10.7337L61.9528 9.98865L61.4318 9.42989V9.24363Z" fill="#0063BE"/>
<path fill-rule="evenodd" clip-rule="evenodd" d="M206.636 97.5317V104.237H214.626L215.494 103.492L216.189 102.933L216.536 102.002L216.71 100.698L216.536 99.3943L216.015 98.2767L214.799 97.718L213.41 97.5317H206.636ZM182.319 88.2186L179.367 98.2767H185.098L182.319 88.2186ZM206.636 85.9834V91.3852H213.062L214.452 91.0125L215.32 90.6399L215.841 89.7087L216.015 88.5911L215.841 87.8461L215.494 87.1011L214.973 86.5422L214.104 86.1697L213.062 85.9834H206.636ZM228.694 79.6506H236.163V110.756H228.694V79.6506ZM199.515 79.6506H213.41L216.015 79.8368L218.273 80.3956L220.184 81.1406L221.573 82.4446L222.442 83.7483C224.002 87.5729 223.501 91.8041 219.836 93.8065C224.048 96.1658 224.262 98.3233 223.831 103.306L223.136 105.355L221.921 107.217L220.357 108.707L218.447 109.825L216.015 110.384L213.236 110.756H199.515V79.6506ZM178.498 79.6506H185.967L196.562 110.756H188.746L187.009 104.61H177.282L175.719 110.756H167.903L178.498 79.6506ZM140.287 79.6506H147.755V91.3852L156.44 79.6506H165.298L156.613 90.4537L166.687 110.756H157.829L151.229 96.7867L147.755 101.443V110.756H140.287V79.6506Z" fill="#0063BE"/>
<path fill-rule="evenodd" clip-rule="evenodd" d="M172.072 39.6042V46.6823H179.193L180.235 46.1235L181.104 45.3785L181.451 44.2608L181.625 42.957L181.451 41.8395L181.104 40.9082L180.235 40.1632L179.193 39.7905L177.803 39.6042H172.072ZM312.413 32.8989H319.881V52.6426L320.402 54.1328L321.097 55.6229L321.965 56.5541L323.355 57.2992L324.918 57.4854L326.308 57.2992L327.523 56.5541L328.566 55.6229L329.26 54.1328L329.608 52.6426L329.781 50.5938V32.8989H337.25C336.442 44.7545 341.821 64.253 324.918 64.3772C307.839 64.4176 313.211 44.8911 312.413 32.8989ZM300.081 32.8989H307.549V64.0047H300.081V32.8989ZM269.859 32.8989H276.459L287.749 49.8488V32.8989H294.696V64.0047H288.791L276.98 46.1235V64.0047H269.859V32.8989ZM244.326 32.8989H265.343V39.7905H251.621V44.2608H260.827V50.9663H251.621V57.2992H266.385V64.0047H244.326V32.8989ZM193.088 32.8989H214.104V39.7905H200.383V44.2608H209.589V50.9663H200.383V57.2992H215.147V64.0047H193.088V32.8989ZM164.777 32.8989H180.235L182.493 33.4577L184.23 34.2027L185.967 35.134L187.183 36.6242L188.225 38.3005C189.901 43.7393 188.839 49.65 183.535 52.0838L189.267 64.0047H181.104L176.24 53.2014H172.072V64.0047H164.777V32.8989ZM140.287 32.8989H161.998V39.7905H147.582V44.447H157.829V51.5251H147.582V64.0047H140.287V32.8989ZM352.014 32.3401C357.117 32.514 358.984 33.0014 363.13 36.2517L359.309 42.212L357.398 40.9082L355.661 39.9768L353.751 39.6042L351.666 39.418H350.277L349.235 39.7905L348.714 40.3495L348.366 40.9082L348.192 41.6532L348.366 42.212L348.887 42.957L349.756 43.3295C352.989 44.4719 356.275 45.1394 359.482 46.6823C364.786 49.4979 364.907 58.1125 360.698 61.9557C355.412 66.1807 344.643 64.6659 339.855 60.0932L343.85 54.5053C354.552 61.9372 362.148 53.9092 350.798 51.7113C335.62 49.6097 339.062 31.682 352.014 32.3401ZM228.694 32.3401C234.241 32.5388 235.396 33.0511 239.984 36.2517L235.989 42.212L234.252 40.9082L232.342 39.9768L230.431 39.6042L228.347 39.418H226.957L225.915 39.7905L225.394 40.3495L225.047 40.9082L224.873 41.6532L225.047 42.212L225.568 42.957L226.61 43.3295C229.655 44.5309 233.045 45.1394 236.163 46.6823C241.417 49.4141 241.721 58.3702 237.205 61.9557C232.035 66.2646 221.205 64.5386 216.536 60.0932L220.705 54.5053L222.268 55.6229L224.352 56.5541L226.61 57.2992L228.868 57.4854H230.431L231.647 57.2992L232.342 56.7404C234.996 53.1393 229.577 52.3726 227.479 51.7113C212.651 49.7152 215.401 31.8559 228.694 32.3401Z" fill="#0063BE"/>
</svg>
