<svg width="135" height="95" viewBox="0 0 135 95" fill="none" xmlns="http://www.w3.org/2000/svg">
<g clip-path="url(#clip0_15_237)">
<mask id="mask0_15_237" style="mask-type:alpha" maskUnits="userSpaceOnUse" x="0" y="0" width="135" height="95">
<path d="M122.143 0H12.8571C5.75634 0 0 5.67106 0 12.6667V82.3333C0 89.3289 5.75634 95 12.8571 95H122.143C129.244 95 135 89.3289 135 82.3333V12.6667C135 5.67106 129.244 0 122.143 0Z" fill="white"/>
</mask>
<g mask="url(#mask0_15_237)">
<path d="M122.143 0H12.8571C5.75634 0 0 5.67106 0 12.6667V82.3333C0 89.3289 5.75634 95 12.8571 95H122.143C129.244 95 135 89.3289 135 82.3333V12.6667C135 5.67106 129.244 0 122.143 0Z" fill="white"/>
<path fill-rule="evenodd" clip-rule="evenodd" d="M67.4999 63.3333C76.3713 63.3333 83.5713 56.24 83.5713 47.5C83.5713 38.76 76.3713 31.6667 67.4999 31.6667C58.6285 31.6667 51.4285 38.76 51.4285 47.5C51.4285 56.24 58.6285 63.3333 67.4999 63.3333ZM67.4999 57C72.8228 57 77.1428 52.744 77.1428 47.5C77.1428 42.256 72.8228 38 67.4999 38C62.177 38 57.857 42.256 57.857 47.5C57.857 52.744 62.177 57 67.4999 57Z" fill="#00008A"/>
<path d="M67.4999 50.6667C69.2751 50.6667 70.7142 49.2489 70.7142 47.5C70.7142 45.7511 69.2751 44.3333 67.4999 44.3333C65.7247 44.3333 64.2856 45.7511 64.2856 47.5C64.2856 49.2489 65.7247 50.6667 67.4999 50.6667Z" fill="#00008A"/>
<path fill-rule="evenodd" clip-rule="evenodd" d="M0 63.3333H135V95H0V63.3333Z" fill="#018900"/>
<path fill-rule="evenodd" clip-rule="evenodd" d="M0 0H135V31.6667H0V0Z" fill="#FF991E"/>
<path d="M122.143 3.16666H12.8572C7.53161 3.16666 3.21436 7.41995 3.21436 12.6667V82.3333C3.21436 87.58 7.53161 91.8333 12.8572 91.8333H122.143C127.469 91.8333 131.786 87.58 131.786 82.3333V12.6667C131.786 7.41995 127.469 3.16666 122.143 3.16666Z" stroke="black" stroke-opacity="0.1"/>
</g>
</g>
<defs>
<clipPath id="clip0_15_237">
<rect width="135" height="95" fill="white"/>
</clipPath>
</defs>
</svg>
