<svg width="135" height="95" viewBox="0 0 135 95" fill="none" xmlns="http://www.w3.org/2000/svg">
<g clip-path="url(#clip0_15_267)">
<mask id="mask0_15_267" style="mask-type:alpha" maskUnits="userSpaceOnUse" x="0" y="0" width="135" height="95">
<path d="M122.143 0H12.8571C5.75634 0 0 5.67106 0 12.6667V82.3333C0 89.3289 5.75634 95 12.8571 95H122.143C129.244 95 135 89.3289 135 82.3333V12.6667C135 5.67106 129.244 0 122.143 0Z" fill="white"/>
</mask>
<g mask="url(#mask0_15_267)">
<path d="M122.143 0H12.8571C5.75634 0 0 5.67106 0 12.6667V82.3333C0 89.3289 5.75634 95 12.8571 95H122.143C129.244 95 135 89.3289 135 82.3333V12.6667C135 5.67106 129.244 0 122.143 0Z" fill="white"/>
<path fill-rule="evenodd" clip-rule="evenodd" d="M0 0H45V95H0V0Z" fill="#009342"/>
<path fill-rule="evenodd" clip-rule="evenodd" d="M90 0H135V95H90V0Z" fill="#D02832"/>
<path d="M122.143 3.16666H12.8572C7.53161 3.16666 3.21436 7.41995 3.21436 12.6667V82.3333C3.21436 87.58 7.53161 91.8333 12.8572 91.8333H122.143C127.469 91.8333 131.786 87.58 131.786 82.3333V12.6667C131.786 7.41995 127.469 3.16666 122.143 3.16666Z" stroke="black" stroke-opacity="0.1"/>
</g>
</g>
<defs>
<clipPath id="clip0_15_267">
<rect width="135" height="95" fill="white"/>
</clipPath>
</defs>
</svg>
