<svg width="373" height="120" viewBox="0 0 373 120" fill="none" xmlns="http://www.w3.org/2000/svg">
<path d="M254.51 44.892C254.984 44.8939 255.45 45.0094 255.866 45.228C256.3 45.4548 256.655 45.8015 256.885 46.224C257.126 46.6295 257.255 47.0884 257.258 47.556C257.256 48.0222 257.132 48.4805 256.898 48.888C256.661 49.3059 256.308 49.6511 255.878 49.884C255.461 50.1122 254.99 50.2322 254.51 50.2322C254.031 50.2322 253.56 50.1122 253.143 49.884C252.712 49.6553 252.362 49.3087 252.136 48.888C251.891 48.4837 251.762 48.024 251.763 47.556C251.766 47.0884 251.894 46.6295 252.136 46.224C252.373 45.8028 252.731 45.4569 253.168 45.228C253.578 45.008 254.04 44.8923 254.51 44.892ZM254.51 45.336C254.118 45.3378 253.733 45.4369 253.391 45.624C253.028 45.8082 252.73 46.0921 252.533 46.44C252.33 46.7792 252.223 47.1641 252.223 47.556C252.222 47.9464 252.325 48.3304 252.521 48.672C252.716 49.0164 253.01 49.2996 253.366 49.488C253.713 49.6841 254.108 49.7875 254.51 49.7875C254.912 49.7875 255.307 49.6841 255.654 49.488C256.011 49.2996 256.305 49.0164 256.5 48.672C256.695 48.3304 256.798 47.9464 256.798 47.556C256.794 47.1661 256.692 46.7831 256.5 46.44C256.296 46.0974 256 45.8152 255.642 45.624C255.295 45.4384 254.906 45.3394 254.51 45.336ZM253.267 49.044V46.164H254.287C254.538 46.1495 254.791 46.178 255.033 46.248C255.188 46.2926 255.321 46.3908 255.406 46.524C255.499 46.6452 255.547 46.7931 255.542 46.944C255.543 47.1488 255.463 47.3462 255.319 47.496C255.157 47.6532 254.939 47.7435 254.709 47.748C254.8 47.7872 254.884 47.8398 254.958 47.904C255.121 48.0824 255.267 48.2752 255.393 48.48L255.754 49.044H255.169L254.908 48.588C254.782 48.3392 254.614 48.1122 254.411 47.916C254.298 47.8405 254.162 47.8064 254.025 47.82H253.777V49.02L253.267 49.044ZM253.752 47.424H254.324C254.522 47.4367 254.721 47.3951 254.896 47.304C254.944 47.2643 254.983 47.2145 255.009 47.1584C255.035 47.1023 255.047 47.0413 255.045 46.98C255.045 46.8984 255.019 46.8187 254.97 46.752C254.922 46.6841 254.852 46.6334 254.771 46.608C254.611 46.5801 254.447 46.5801 254.287 46.608H253.777L253.752 47.424Z" fill="#6D6E71"/>
<path d="M44.6854 60.924H22.7157V39.54C28.5667 39.5654 34.1677 41.8322 38.2875 45.8422C42.4072 49.8521 44.7085 55.2769 44.6854 60.924Z" fill="#6D6E71"/>
<path d="M68.8558 39.54H46.8861V60.912H68.8558V39.54Z" fill="#00B9AD"/>
<path d="M44.6854 63.06H22.7157V84.432H44.6854V63.06Z" fill="#00B9AD"/>
<path d="M68.8558 84.432C65.9593 84.421 63.0933 83.8594 60.4217 82.7794C57.75 81.6994 55.3249 80.1221 53.2848 78.1375C51.2447 76.1529 49.6296 73.8 48.5317 71.2129C47.4338 68.6259 46.8746 65.8556 46.8861 63.06H68.8558V84.432Z" fill="#6D6E71"/>
<path d="M82.0352 76.908V48.468H90.0174L99.1186 58.68C99.3672 58.956 99.7154 59.364 100.138 59.88L101.381 61.476C101.817 62.016 102.152 62.448 102.376 62.772L102.587 62.688C102.587 61.92 102.587 61.152 102.587 60.396V48.468H111.129V76.908H103.197L92.9516 65.58C92.4626 65.028 92.0481 64.524 91.7083 64.068C91.3726 63.612 91.0493 63.18 90.7261 62.772L90.5147 62.856C90.5147 63.384 90.5147 63.9 90.5147 64.428V76.908H82.0352Z" fill="#6D6E71"/>
<path d="M126.795 77.412C124.562 77.4818 122.341 77.0719 120.292 76.212C118.539 75.429 117.098 74.1143 116.189 72.468C115.17 70.4669 114.683 68.2523 114.772 66.024C114.676 63.7978 115.154 61.5834 116.165 59.58C117.058 57.9414 118.475 56.6244 120.205 55.824C122.193 54.964 124.357 54.5536 126.534 54.624C128.674 54.5552 130.802 54.9659 132.751 55.824C134.422 56.5971 135.775 57.8905 136.593 59.496C137.55 61.5017 138.001 63.6975 137.91 65.904V67.356H121.822C121.789 68.3549 121.962 69.3502 122.332 70.284C122.631 71.0419 123.182 71.6831 123.898 72.108C124.773 72.5547 125.757 72.7661 126.745 72.72C127.376 72.7343 128.005 72.6533 128.61 72.48C129.116 72.3344 129.582 72.0847 129.978 71.748C130.339 71.4338 130.627 71.0494 130.823 70.62C131.028 70.1492 131.13 69.6426 131.122 69.132H137.873C137.896 70.3466 137.641 71.5512 137.127 72.66C136.641 73.6947 135.888 74.5915 134.939 75.264C133.893 76.01 132.706 76.5521 131.445 76.86C129.926 77.2363 128.363 77.4178 126.795 77.4M121.822 63.588H130.749C130.758 62.9493 130.662 62.3133 130.463 61.704C130.304 61.2047 130.032 60.7456 129.667 60.36C129.32 60.0064 128.895 59.7317 128.424 59.556C127.873 59.3695 127.292 59.2801 126.708 59.292C125.851 59.2737 125.001 59.4419 124.221 59.784C123.557 60.1053 123.007 60.611 122.642 61.236C122.241 61.9824 121.996 62.798 121.921 63.636" fill="#6D6E71"/>
<path d="M144.935 76.908L137.923 55.164H144.14L146.95 65.832C147.086 66.384 147.223 67.032 147.347 67.608C147.472 68.184 147.596 68.808 147.708 69.312C147.82 69.816 147.907 70.164 147.969 70.38H148.255C148.379 69.828 148.491 69.264 148.616 68.664C148.74 68.064 148.877 67.464 149.001 66.972C149.125 66.48 149.225 66.024 149.275 65.772L151.96 55.188H158.177L160.937 65.82C161.075 66.2899 161.187 66.7666 161.273 67.248C161.397 67.812 161.521 68.376 161.658 68.94C161.795 69.504 161.919 69.996 162.006 70.404H162.255C162.255 70.02 162.404 69.564 162.529 69.036C162.653 68.508 162.79 67.98 162.914 67.428C163.038 66.876 163.163 66.384 163.275 65.94L166.035 55.14H171.717L164.754 76.884H158.674L156.188 67.176C156.076 66.648 155.939 66.072 155.765 65.424C155.591 64.776 155.442 64.128 155.317 63.492C155.193 62.856 155.081 62.292 154.994 61.848H154.745C154.723 62.2284 154.665 62.606 154.571 62.976C154.459 63.492 154.323 64.092 154.173 64.8C154.024 65.508 153.825 66.288 153.601 67.2L151.053 76.908H144.973" fill="#6D6E71"/>
<path d="M182.235 77.412C180.242 77.4865 178.262 77.0737 176.479 76.212C174.905 75.368 173.667 74.0423 172.96 72.444C172.078 70.4176 171.654 68.233 171.717 66.036C171.646 63.8228 172.07 61.6208 172.96 59.58C173.671 57.9926 174.915 56.6823 176.491 55.86C178.296 54.9972 180.297 54.5847 182.31 54.66C184.165 54.6085 186.003 55.0219 187.644 55.86C189.102 56.6884 190.241 57.9519 190.889 59.46C191.681 61.3654 192.058 63.4078 191.996 65.46V67.116H176.33C176.339 68.4343 176.583 69.7412 177.051 70.98C177.407 71.9288 178.086 72.7328 178.978 73.26C179.992 73.7733 181.128 74.0215 182.273 73.98C183.023 73.9887 183.77 73.8834 184.486 73.668C185.096 73.4884 185.66 73.1857 186.139 72.78C186.599 72.3796 186.963 71.8884 187.209 71.34C187.467 70.7268 187.594 70.0697 187.582 69.408H191.921C191.933 70.5652 191.701 71.7127 191.237 72.78C190.803 73.7607 190.124 74.6224 189.26 75.288C188.347 75.986 187.305 76.5113 186.189 76.836C184.907 77.2084 183.574 77.3905 182.235 77.376M176.417 63.936H187.37C187.391 63.0236 187.269 62.1135 187.01 61.236C186.81 60.5664 186.452 59.9503 185.965 59.436C185.528 58.9708 184.977 58.6199 184.361 58.416C182.659 57.9111 180.825 58.022 179.202 58.728C178.356 59.147 177.675 59.8211 177.262 60.648C176.77 61.6833 176.483 62.7986 176.417 63.936Z" fill="#6D6E71"/>
<path d="M203.123 77.412C201.458 77.4532 199.816 77.037 198.386 76.212C196.988 75.3044 195.922 73.9943 195.34 72.468C194.546 70.359 194.179 68.1226 194.258 65.88C194.174 63.731 194.542 61.5878 195.34 59.58C195.911 58.0965 196.953 56.8252 198.317 55.948C199.682 55.0708 201.299 54.6325 202.937 54.696C203.869 54.6862 204.797 54.7992 205.697 55.032C206.515 55.2376 207.286 55.5875 207.972 56.064C208.677 56.5713 209.276 57.2023 209.738 57.924H209.987V47.028H213.717V76.908H210.695L210.36 73.812H210.061C209.358 74.97 208.327 75.9107 207.09 76.524C205.85 77.1187 204.483 77.423 203.099 77.412M204.043 74.22C205.257 74.2738 206.457 73.959 207.475 73.32C208.398 72.658 209.077 71.7288 209.415 70.668C209.858 69.2774 210.064 67.8264 210.024 66.372V65.712C210.054 64.4414 209.899 63.173 209.564 61.944C209.323 61.0705 208.9 60.2537 208.321 59.544C207.824 58.9679 207.182 58.5256 206.456 58.26C205.733 58.0143 204.972 57.8885 204.205 57.888C203.014 57.8428 201.834 58.1214 200.798 58.692C199.871 59.2995 199.183 60.1918 198.846 61.224C198.378 62.6591 198.164 64.1601 198.212 65.664V66.528C198.156 68.0634 198.387 69.5961 198.896 71.052C199.249 72.0445 199.942 72.8912 200.861 73.452C201.843 73.9798 202.957 74.2372 204.081 74.196" fill="#6D6E71"/>
<path d="M221.985 84.432C220.945 84.4388 219.918 84.2086 218.988 83.76C218.093 83.3273 217.337 82.6677 216.8 81.852C216.253 81.0032 215.972 80.0195 215.992 79.02C215.959 77.9083 216.314 76.8181 216.999 75.924C217.638 75.0861 218.496 74.4275 219.486 74.016C218.789 73.7402 218.195 73.2675 217.782 72.66C217.389 72.0651 217.182 71.3735 217.185 70.668C217.183 70.2184 217.276 69.7732 217.46 69.3602C217.644 68.9472 217.915 68.5754 218.255 68.268C218.965 67.5898 219.863 67.1233 220.841 66.924C219.922 66.3301 219.16 65.537 218.615 64.608C218.065 63.6888 217.778 62.6453 217.782 61.584C217.752 60.3186 218.092 59.0707 218.764 57.984C219.477 56.9183 220.503 56.0825 221.711 55.584C223.283 54.9445 224.98 54.6415 226.685 54.696C227.559 54.6934 228.433 54.7616 229.295 54.9C230.048 55.0252 230.782 55.2346 231.484 55.524C232.387 55.228 233.184 54.6913 233.784 53.976C234.316 53.3154 234.679 52.5422 234.841 51.72H237.899C237.874 52.4974 237.67 53.2596 237.303 53.952C236.944 54.665 236.421 55.2891 235.773 55.776C235.094 56.2845 234.288 56.6114 233.436 56.724C234.145 57.3386 234.698 58.1022 235.052 58.956C235.399 59.7955 235.572 60.6923 235.562 61.596C235.583 62.8268 235.252 64.0393 234.605 65.1C233.917 66.1778 232.913 67.0341 231.72 67.56C230.153 68.2169 228.453 68.5245 226.747 68.46H223.228C222.499 68.4328 221.777 68.5988 221.139 68.94C220.883 69.1138 220.673 69.3446 220.529 69.613C220.384 69.8814 220.309 70.1795 220.309 70.482C220.309 70.7845 220.384 71.0825 220.529 71.3509C220.673 71.6193 220.883 71.8502 221.139 72.024C221.776 72.3935 222.51 72.577 223.253 72.552H231.956C232.707 72.5273 233.454 72.6593 234.147 72.9389C234.84 73.2185 235.463 73.6391 235.972 74.172C237.044 75.2529 237.633 76.6963 237.613 78.192C237.626 79.3078 237.316 80.4049 236.718 81.36C236.116 82.3149 235.256 83.0944 234.232 83.616C233.112 84.1801 231.863 84.4609 230.601 84.432H221.898M222.582 82.032H230.514C231.211 82.0465 231.899 81.8895 232.516 81.576C233.099 81.2848 233.592 80.8501 233.946 80.316C234.286 79.804 234.467 79.2084 234.468 78.6C234.512 77.6744 234.177 76.7692 233.535 76.08C233.238 75.7711 232.875 75.5268 232.472 75.3634C232.069 75.1999 231.635 75.121 231.198 75.132H222.693C221.745 75.1383 220.837 75.5065 220.169 76.1562C219.5 76.8059 219.125 77.6843 219.125 78.6C219.104 79.0646 219.185 79.5282 219.363 79.9604C219.541 80.3926 219.812 80.7837 220.157 81.108C220.835 81.708 221.724 82.0381 222.644 82.032M226.672 66.036C228.242 66.1658 229.806 65.7392 231.073 64.836C231.547 64.4232 231.92 63.9142 232.165 63.3456C232.41 62.777 232.521 62.1631 232.491 61.548C232.522 60.9274 232.412 60.3077 232.167 59.7332C231.922 59.1586 231.548 58.6433 231.073 58.224C229.806 57.3208 228.242 56.8941 226.672 57.024C225.127 56.9031 223.588 57.3297 222.345 58.224C221.862 58.6384 221.482 59.1522 221.232 59.7276C220.983 60.3029 220.87 60.925 220.903 61.548C220.89 62.3615 221.109 63.1629 221.537 63.864C221.99 64.584 222.663 65.1502 223.464 65.484C224.479 65.895 225.572 66.0915 226.672 66.06" fill="#6D6E71"/>
<path d="M247.56 77.412C245.759 77.4704 243.976 77.0557 242.4 76.212C240.918 75.3398 239.77 74.0256 239.13 72.468C238.317 70.4256 237.937 68.2467 238.011 66.06C237.933 63.8692 238.314 61.6857 239.13 59.64C239.785 58.0791 240.957 56.7712 242.462 55.92C244.138 55.0673 246.015 54.6535 247.908 54.72C249.694 54.6562 251.463 55.0716 253.018 55.92C254.395 56.7211 255.485 57.9106 256.139 59.328C256.886 60.9759 257.251 62.7616 257.208 64.56V66.624H240.224C240.151 68.437 240.46 70.2455 241.132 71.94C241.633 73.1543 242.551 74.1664 243.731 74.808C244.967 75.4226 246.344 75.7241 247.734 75.684C248.863 75.7119 249.988 75.5412 251.054 75.18C251.886 74.9005 252.645 74.4501 253.279 73.86C253.85 73.3229 254.299 72.6772 254.597 71.964C254.889 71.264 255.057 70.5217 255.095 69.768H257.047C257.011 70.7167 256.813 71.6532 256.462 72.54C256.099 73.4658 255.545 74.3108 254.834 75.024C254.019 75.8136 253.034 76.42 251.949 76.8C250.555 77.2668 249.085 77.4903 247.61 77.46M240.224 64.8H255.144C255.176 63.4645 254.992 62.1325 254.597 60.852C254.285 59.8945 253.754 59.017 253.043 58.284C252.39 57.6444 251.589 57.1633 250.706 56.88C249.75 56.5828 248.751 56.4369 247.747 56.448C246.367 56.4103 245.001 56.7161 243.78 57.336C242.672 57.9706 241.801 58.9287 241.294 60.072C240.637 61.5685 240.291 63.1748 240.274 64.8" fill="#6D6E71"/>
<path d="M280.123 72.78C278.834 72.8149 277.555 72.5515 276.393 72.012C275.355 71.5046 274.514 70.6884 273.993 69.684C273.436 68.4541 273.148 67.1263 273.148 65.784C273.148 64.4416 273.436 63.1138 273.993 61.884C274.518 60.8855 275.358 60.0743 276.393 59.568C277.566 59.0601 278.837 58.7975 280.123 58.7975C281.409 58.7975 282.68 59.0601 283.853 59.568C284.888 60.0743 285.728 60.8855 286.253 61.884C286.81 63.1138 287.098 64.4416 287.098 65.784C287.098 67.1263 286.81 68.4541 286.253 69.684C285.732 70.6884 284.891 71.5046 283.853 72.012C282.692 72.5538 281.412 72.8172 280.123 72.78ZM280.123 70.908C280.791 70.9205 281.456 70.8189 282.087 70.608C282.641 70.4271 283.141 70.1181 283.542 69.708C283.961 69.2666 284.275 68.7425 284.462 68.172C284.678 67.4752 284.782 66.751 284.773 66.024V65.58C284.783 64.8411 284.678 64.1049 284.462 63.396C284.275 62.8255 283.961 62.3013 283.542 61.86C283.141 61.4499 282.641 61.1409 282.087 60.96C281.456 60.7491 280.791 60.6475 280.123 60.66C279.459 60.6474 278.798 60.749 278.171 60.96C277.616 61.1377 277.115 61.4472 276.716 61.86C276.301 62.302 275.992 62.8263 275.809 63.396C275.597 64.1056 275.497 64.8417 275.51 65.58V66.012C275.497 66.7384 275.597 67.4626 275.809 68.16C275.992 68.7297 276.301 69.254 276.716 69.696C277.115 70.1088 277.616 70.4183 278.171 70.596C278.798 70.807 279.459 70.9086 280.123 70.896" fill="#6D6E71"/>
<path d="M292.32 72.48L288.379 62.124H290.579L292.42 67.068C292.507 67.308 292.606 67.608 292.73 67.98C292.855 68.352 292.967 68.736 293.091 69.18C293.215 69.624 293.315 69.936 293.414 70.248H293.563C293.638 69.948 293.738 69.6 293.862 69.216C293.986 68.832 294.086 68.448 294.21 68.016C294.334 67.584 294.446 67.32 294.533 67.068L296.361 62.124H298.5L294.533 72.48H292.32Z" fill="#6D6E71"/>
<path d="M304.181 72.78C303.234 72.8102 302.294 72.6122 301.446 72.204C300.695 71.7933 300.108 71.1509 299.78 70.38C299.017 68.4105 299.017 66.2415 299.78 64.272C300.116 63.5145 300.708 62.8887 301.459 62.496C302.319 62.0853 303.272 61.8873 304.231 61.92C305.095 61.8975 305.951 62.0875 306.718 62.472C307.408 62.8653 307.949 63.4628 308.26 64.176C308.64 65.0905 308.822 66.0708 308.794 67.056V67.836H301.334C301.348 68.4659 301.465 69.0898 301.682 69.684C301.85 70.1363 302.175 70.5183 302.602 70.764C303.084 71.0106 303.624 71.1306 304.169 71.112C304.528 71.1136 304.884 71.0609 305.226 70.956C305.517 70.8706 305.785 70.7229 306.009 70.524C306.228 70.3337 306.402 70.1004 306.519 69.84C306.646 69.5519 306.71 69.2412 306.705 68.928H308.757C308.771 69.488 308.661 70.0445 308.434 70.56C308.228 71.027 307.908 71.4388 307.501 71.76C307.065 72.0926 306.567 72.3412 306.034 72.492C305.423 72.6763 304.785 72.7654 304.144 72.756M301.384 66.36H306.594C306.609 65.9217 306.55 65.484 306.419 65.064C306.324 64.7492 306.159 64.4584 305.935 64.212C305.724 63.9917 305.459 63.8266 305.164 63.732C304.343 63.4933 303.462 63.5444 302.677 63.876C302.277 64.0775 301.955 64.397 301.757 64.788C301.523 65.2831 301.388 65.8165 301.359 66.36" fill="#6D6E71"/>
<path d="M311.032 72.48V62.124H312.76L312.947 63.804H313.071C313.191 63.4793 313.349 63.1691 313.544 62.88C313.74 62.5891 314.004 62.3466 314.315 62.172C314.851 61.9054 315.467 61.8289 316.055 61.956L316.441 62.052V63.984H315.732C315.345 63.9751 314.961 64.0404 314.601 64.176C314.279 64.3 313.993 64.4977 313.768 64.752C313.537 65.0258 313.371 65.3454 313.283 65.688C313.182 66.0806 313.132 66.4836 313.133 66.888V72.432H311.032" fill="#6D6E71"/>
<path d="M322.16 72.78C321.497 72.7886 320.836 72.7078 320.196 72.54C319.685 72.4123 319.204 72.1924 318.778 71.892C318.414 71.631 318.12 71.2895 317.92 70.896C317.718 70.4964 317.616 70.0566 317.622 69.612C317.622 69.54 317.622 69.48 317.622 69.432C317.622 69.384 317.622 69.336 317.622 69.288H319.673V69.504C319.66 69.8622 319.784 70.2127 320.022 70.488C320.27 70.7404 320.59 70.9159 320.942 70.992C321.348 71.0936 321.765 71.146 322.185 71.148C322.564 71.1467 322.94 71.0942 323.304 70.992C323.619 70.913 323.91 70.7605 324.149 70.548C324.258 70.4551 324.345 70.3404 324.403 70.2119C324.461 70.0833 324.489 69.9441 324.485 69.804C324.497 69.6319 324.465 69.4597 324.391 69.3026C324.317 69.1456 324.204 69.0086 324.062 68.904C323.728 68.6657 323.347 68.4944 322.943 68.4L321.588 67.98C321.141 67.86 320.705 67.74 320.258 67.596C319.839 67.4724 319.441 67.2905 319.077 67.056C318.732 66.8419 318.443 66.5545 318.231 66.216C318.005 65.824 317.894 65.3803 317.908 64.932C317.899 64.4843 318.011 64.042 318.231 63.648C318.451 63.277 318.758 62.9606 319.126 62.724C319.549 62.4606 320.016 62.2698 320.506 62.16C321.08 62.0214 321.669 61.9529 322.26 61.956C322.852 61.947 323.442 62.0198 324.013 62.172C324.481 62.2855 324.923 62.4807 325.318 62.748C325.662 62.9809 325.943 63.2894 326.139 63.648C326.328 63.9873 326.426 64.3667 326.425 64.752C326.431 64.8359 326.431 64.9201 326.425 65.004C326.42 65.0599 326.42 65.1161 326.425 65.172H324.361V64.992C324.365 64.7391 324.287 64.4913 324.137 64.284C323.964 64.0485 323.721 63.8687 323.441 63.768C323.044 63.625 322.621 63.5597 322.197 63.576C321.884 63.5695 321.571 63.5977 321.265 63.66C321.028 63.706 320.801 63.7913 320.594 63.912C320.43 64.0005 320.293 64.1287 320.196 64.284C320.109 64.4343 320.066 64.6042 320.071 64.776C320.065 64.9095 320.092 65.0426 320.151 65.1638C320.209 65.285 320.297 65.3907 320.407 65.472C320.67 65.6593 320.964 65.8014 321.277 65.892L322.521 66.252L324 66.648C324.476 66.7822 324.938 66.959 325.38 67.176C325.846 67.3845 326.234 67.7272 326.49 68.1569C326.746 68.5867 326.858 69.0824 326.81 69.576C326.818 70.0878 326.699 70.594 326.462 71.052C326.236 71.4636 325.907 71.8143 325.505 72.072C325.058 72.3404 324.565 72.5313 324.05 72.636C323.428 72.7556 322.794 72.8039 322.16 72.78Z" fill="#6D6E71"/>
<path d="M333.35 72.78C332.403 72.8117 331.462 72.6137 330.615 72.204C329.84 71.8039 329.23 71.1603 328.887 70.38C328.124 68.4105 328.124 66.2415 328.887 64.272C329.223 63.5145 329.814 62.8887 330.565 62.496C331.421 62.0853 332.37 61.8873 333.325 61.92C334.189 61.8949 335.046 62.085 335.812 62.472C336.507 62.8633 337.052 63.4611 337.366 64.176C337.742 65.0914 337.92 66.0716 337.888 67.056V67.836H330.428C330.46 68.4641 330.607 69.0818 330.863 69.66C331.031 70.1123 331.356 70.4943 331.783 70.74C332.265 70.9866 332.805 71.1066 333.35 71.088C333.705 71.0887 334.057 71.0361 334.394 70.932C334.688 70.8439 334.96 70.6967 335.19 70.5C335.405 70.309 335.574 70.0757 335.688 69.816C335.815 69.5279 335.879 69.2172 335.874 68.904H337.938C337.946 69.4635 337.836 70.0188 337.615 70.536C337.405 71.0038 337.081 71.4155 336.67 71.736C336.236 72.071 335.737 72.3198 335.203 72.468C334.606 72.666 333.981 72.7713 333.35 72.78ZM330.577 66.384H335.799C335.808 65.946 335.75 65.5093 335.625 65.088C335.531 64.7703 335.361 64.4785 335.128 64.236C334.919 64.0132 334.653 63.8476 334.357 63.756C334.032 63.6551 333.692 63.6065 333.35 63.612C332.853 63.5987 332.359 63.6973 331.908 63.9C331.508 64.1015 331.186 64.4211 330.988 64.812C330.749 65.3062 330.61 65.8396 330.577 66.384Z" fill="#6D6E71"/>
<path d="M342.886 72.78C342.518 72.7792 342.151 72.7389 341.792 72.66C341.401 72.577 341.027 72.4309 340.686 72.228C340.338 72.0061 340.052 71.7053 339.853 71.352C339.615 70.8994 339.503 70.3948 339.529 69.888C339.501 69.2681 339.675 68.6553 340.027 68.136C340.388 67.6578 340.878 67.2843 341.444 67.056C342.136 66.7669 342.87 66.5808 343.62 66.504C344.535 66.3896 345.457 66.3335 346.38 66.336V65.316C346.39 65.0074 346.331 64.7004 346.206 64.416C346.084 64.1451 345.863 63.9272 345.584 63.804C345.19 63.6489 344.767 63.5753 344.341 63.588C343.888 63.572 343.436 63.6413 343.011 63.792C342.741 63.8936 342.511 64.074 342.352 64.308C342.22 64.5045 342.151 64.734 342.153 64.968V65.256H340.139C340.133 65.1921 340.133 65.1278 340.139 65.064V64.824C340.121 64.2595 340.311 63.7071 340.673 63.264C341.068 62.8078 341.59 62.4705 342.178 62.292C342.902 62.0545 343.664 61.9408 344.428 61.956C345.214 61.9293 345.997 62.06 346.728 62.34C347.295 62.5562 347.778 62.938 348.108 63.432C348.429 63.9453 348.589 64.537 348.568 65.136V70.38C348.557 70.4786 348.57 70.5784 348.604 70.6719C348.639 70.7654 348.694 70.8502 348.767 70.92C348.894 71.0202 349.052 71.0753 349.215 71.076H349.949V72.456L349.339 72.648C349.063 72.7145 348.779 72.7467 348.494 72.744C348.177 72.7534 347.862 72.6918 347.574 72.564C347.329 72.4334 347.12 72.2483 346.965 72.024C346.806 71.7875 346.701 71.5219 346.654 71.244H346.529C346.285 71.5591 345.987 71.8312 345.647 72.048C345.287 72.2877 344.888 72.4663 344.466 72.576C343.981 72.7109 343.478 72.7756 342.973 72.768M343.558 71.076C343.952 71.0828 344.345 71.0177 344.714 70.884C345.055 70.7777 345.369 70.6015 345.632 70.3674C345.896 70.1334 346.105 69.847 346.243 69.528C346.395 69.1953 346.471 68.8353 346.467 68.472V67.74C345.635 67.7289 344.804 67.781 343.981 67.896C343.398 67.9618 342.84 68.1591 342.352 68.472C342.156 68.6072 341.998 68.7881 341.894 68.9979C341.789 69.2077 341.742 69.4396 341.755 69.672C341.748 69.9385 341.821 70.2012 341.966 70.428C342.112 70.6429 342.326 70.807 342.576 70.896C342.878 71.0025 343.198 71.0554 343.521 71.052" fill="#6D6E71"/>
<path d="M355.568 72.78C354.905 72.7879 354.244 72.7071 353.604 72.54C353.095 72.4074 352.615 72.1879 352.187 71.892C351.825 71.6278 351.532 71.287 351.329 70.896C351.136 70.4936 351.039 70.0551 351.043 69.612V69.432C351.048 69.3841 351.048 69.3358 351.043 69.288H353.132V69.504C353.114 69.8607 353.234 70.211 353.467 70.488C353.719 70.7355 354.038 70.9101 354.387 70.992C354.793 71.0936 355.211 71.1461 355.631 71.148C356.009 71.1485 356.386 71.0959 356.75 70.992C357.069 70.913 357.363 70.7607 357.608 70.548C357.716 70.4552 357.803 70.3404 357.861 70.2119C357.919 70.0834 357.947 69.9441 357.943 69.804C357.953 69.631 357.918 69.4585 357.842 69.3015C357.766 69.1446 357.651 69.0081 357.508 68.904C357.18 68.6634 356.803 68.4917 356.401 68.4L355.009 67.98C354.561 67.86 354.114 67.74 353.679 67.596C353.238 67.478 352.819 67.2959 352.435 67.056C352.091 66.8419 351.802 66.5546 351.59 66.216C351.355 65.8268 351.239 65.3819 351.254 64.932C351.244 64.4826 351.36 64.0388 351.59 63.648C351.81 63.277 352.116 62.9606 352.485 62.724C352.908 62.4606 353.375 62.2698 353.865 62.16C354.434 62.0207 355.019 61.9521 355.606 61.956C356.202 61.9475 356.796 62.0202 357.371 62.172C357.839 62.2855 358.282 62.4807 358.677 62.748C359.014 62.9878 359.294 63.2947 359.497 63.648C359.683 63.9882 359.777 64.3677 359.771 64.752V65.004C359.766 65.0599 359.766 65.1161 359.771 65.172H357.707V64.992C357.712 64.7391 357.633 64.4913 357.483 64.284C357.307 64.051 357.066 63.8718 356.787 63.768C356.389 63.6277 355.967 63.5625 355.544 63.576C355.23 63.5708 354.918 63.5989 354.611 63.66C354.378 63.706 354.155 63.7913 353.952 63.912C353.786 63.9971 353.648 64.1261 353.554 64.284C353.464 64.4333 353.417 64.6032 353.417 64.776C353.411 64.9095 353.438 65.0426 353.497 65.1638C353.555 65.285 353.643 65.3907 353.753 65.472C354.022 65.6569 354.32 65.7987 354.636 65.892L355.805 66.252L357.284 66.648C357.761 66.7801 358.223 66.9569 358.664 67.176C359.13 67.3845 359.518 67.7272 359.774 68.157C360.03 68.5867 360.142 69.0824 360.094 69.576C360.109 70.0884 359.989 70.5961 359.746 71.052C359.524 71.4661 359.194 71.8175 358.789 72.072C358.345 72.3383 357.857 72.5291 357.346 72.636C356.755 72.7637 356.15 72.8281 355.544 72.828" fill="#6D6E71"/>
</svg>
